PathFileType	4	(X/Y/Z)	Walk4.trc
DataRate	CameraRate	NumFrames	NumMarkers	Units	OrigDataRate	OrigDataStartFrame	OrigNumFrames
200.000000	200.000000	4	58	mm	200.000000	287	550
Frame#	Times		RBHD		C7		RASI		RACR1		RUA1		RElbow		RFA1		RWRU		RCAR		LFA1		RTH2		RTH3		RBack		LTH2		LElbowM		RLFC		RTB1		RTB3		LTH3		RTH1		RTH4		RMT1		RMT5		LElbow		RTB2		LTH4		LACR1		RTB4		LWRR		LWRU		RMMAL		CLAV		LASI		LPSI		LTB1		LBHD		RPSI		LLFC		T10		RWRR		LFHD		LTB3		LCAR		LTH1		LTB4		RFHD		LMT1		LCAL		RToe		LMMAL		RElbowM		LMT5		RLMAL		LLMAL		LTB2		LToe		LUA1		RCAL
			X1	Y1	Z1	X2	Y2	Z2	X3	Y3	Z3	X4	Y4	Z4	X5	Y5	Z5	X6	Y6	Z6	X7	Y7	Z7	X8	Y8	Z8	X9	Y9	Z9	X10	Y10	Z10	X11	Y11	Z11	X12	Y12	Z12	X13	Y13	Z13	X14	Y14	Z14	X15	Y15	Z15	X16	Y16	Z16	X17	Y17	Z17	X18	Y18	Z18	X19	Y19	Z19	X20	Y20	Z20	X21	Y21	Z21	X22	Y22	Z22	X23	Y23	Z23	X24	Y24	Z24	X25	Y25	Z25	X26	Y26	Z26	X27	Y27	Z27	X28	Y28	Z28	X29	Y29	Z29	X30	Y30	Z30	X31	Y31	Z31	X32	Y32	Z32	X33	Y33	Z33	X34	Y34	Z34	X35	Y35	Z35	X36	Y36	Z36	X37	Y37	Z37	X38	Y38	Z38	X39	Y39	Z39	X40	Y40	Z40	X41	Y41	Z41	X42	Y42	Z42	X43	Y43	Z43	X44	Y44	Z44	X45	Y45	Z45	X46	Y46	Z46	X47	Y47	Z47	X48	Y48	Z48	X49	Y49	Z49	X50	Y50	Z50	X51	Y51	Z51	X52	Y52	Z52	X53	Y53	Z53	X54	Y54	Z54	X55	Y55	Z55	X56	Y56	Z56	X57	Y57	Z57	X58	Y58	Z58

287	1.435	-272.59	1572.8	400.18	-307.48	1439.7	325.91	-204.61	948.99	441.83	-236.95	1382.9	467.34	-287.24	1194.6	547.47	-341.82	1072.2	575.1	-301.93	929.59	598.27	-311.08	798.45	591.25	-266.49	746.92	600.19	-249.62	994.35	-1.4658	-141.62	671.82	447.56	-184.15	559.77	457.72	-377.89	1344.2	419.28	-173.33	648.75	146.77	-376.88	1117.2	105.27	-164.6	459.6	440.14	-143.01	367.48	353.58	-174.42	179.53	350.75	-229.62	547.9	128.55	-228.71	740.81	492.9	-205.52	649.15	478.96	-94.006	37.902	307.72	-118.96	32.867	398.39	-352.88	1119.1	27.409	-159.75	271.78	426.22	-245.23	636.38	119.53	-272.42	1435.9	148.31	-156.4	275.25	354.01	-182.03	900.89	40.603	-250.46	875.88	3.0287	-221.01	95.59	307.45	-175.69	1355.3	303.03	-235.96	939.88	140.22	-401.44	954.97	251.19	-260.41	339.6	202.23	-268.89	1584.3	261.75	-394.69	962.55	357.03	-232.88	439.71	141.91	-407.74	1131.6	303.1	-240.17	800.36	558.77	-85.725	1592.9	291.35	-423.55	252.1	214.09	-172.13	849.29	-7.829	-259.77	732.89	117.01	-342.78	296.97	208.77	-86.073	1591.6	372.93	-512.72	89.418	260.57	-623.13	255.47	243.25	-39.685	32.492	328.71	-528.6	223.27	275.54	-367.01	1048.1	483.44	-532.82	105.5	182.29	-239.63	81.124	396.44	-565.22	243.02	193.01	-362.06	323.32	144.78	-481.36	66.383	237.02	-313.48	1246.5	46.647	-295.47	34.428	358.32
288	1.44	-265.86	1574	400.12	-301.01	1441.1	326.1	-198.71	949.83	441.92	-230.29	1384.1	467.27	-278.7	1195.8	547.76	-332.56	1073.1	576.07	-291.06	930.56	598.83	-298.95	799.47	591.8	-253.57	748.62	600.38	-245.82	994.93	-1.1686	-137.54	671.32	447.75	-181.22	559.9	458.01	-371.42	1345.3	419.77	-164.06	652.04	146.05	-372.57	1118.5	105.29	-162.9	459.37	440.37	-141.82	367.33	353.76	-174.26	179.41	350.92	-218.66	550.12	128.02	-223.27	741.56	492.8	-201.84	649.39	479.52	-94.011	37.855	307.77	-118.95	32.834	398.42	-348.34	1120.2	28.03	-158.82	271.58	426.4	-235.71	638.18	119.26	-266.71	1437	148.09	-155.98	275.01	354.2	-179.01	900.69	41.018	-247.68	876.35	3.1436	-220.95	95.646	307.5	-169.33	1356.6	302.74	-230.24	941.19	140.19	-395.31	956.48	251.85	-246.89	341.64	201.83	-262.06	1585.9	261.93	-388.65	963.62	357.58	-219.88	442.05	141.52	-401.28	1132.8	303.7	-227.79	802.27	558.67	-78.825	1593.5	291.5	-408.67	253.47	213.93	-169.64	849.07	-7.1059	-252.31	734.42	117	-328.66	298.77	208.5	-79.441	1592.3	373.12	-496.23	90.245	260.56	-608.84	255.01	243.85	-39.653	32.337	328.68	-513.7	223.85	276	-358.69	1048.8	484.57	-516.53	106.4	182.29	-239.62	81.021	396.42	-550.61	243.46	193.46	-348.19	325.14	144.64	-464.66	67.894	236.83	-308.63	1247.8	46.783	-295.5	34.407	358.39
289	1.445	-259.11	1575.4	400.23	-294.74	1442.4	326.26	-192.5	950.67	442.23	-223.48	1385.5	467.21	-270.18	1197	547.9	-323.09	1073.8	577.2	-280.11	931.93	599.23	-286.45	800.76	592.34	-240.59	750.13	600.5	-242.54	995.54	-0.76894	-133.43	671.03	448.02	-178.82	559.96	458.33	-365.05	1346.6	420.23	-154.68	655.12	145.4	-368.12	1119.9	105.31	-161.43	459.06	440.58	-140.17	367.14	353.89	-173.98	179.25	350.95	-207.47	552.32	127.75	-218.83	742.06	493.08	-198.21	649.67	479.5	-94.029	37.859	307.78	-118.89	32.791	398.49	-343.84	1121.5	28.501	-158.34	271.33	426.56	-226.44	640.02	119.05	-261.15	1438.3	148.26	-155.35	274.87	354.35	-176.15	900.71	41.422	-244.79	877.11	3.2456	-220.9	95.718	307.52	-163.3	1357.8	302.47	-224.32	942.84	140.2	-388.01	958.18	252.76	-233.02	343.59	201.22	-255.29	1587.4	262.07	-382.9	965.32	357.76	-207	444.32	141.14	-395.46	1134.3	304.5	-215.68	804.31	558.87	-72.167	1594.5	291.87	-394.2	254.23	213.92	-166.98	848.96	-6.5703	-244.53	736.04	116.98	-314.17	300.39	208.01	-72.699	1593.1	373.39	-479.56	90.841	260.46	-594.4	253.93	244.48	-39.652	32.196	328.69	-498.55	223.96	276.47	-350.05	1049.3	485.71	-500.03	106.85	182.43	-239.55	81.047	396.47	-536	243.12	193.86	-334.43	326.73	144.67	-447.39	69.154	236.71	-303.95	1248.9	46.952	-295.54	34.443	358.46
290	1.45	-252.44	1576.7	400.49	-288.41	1443.4	326.22	-185.99	951.44	442.49	-217.01	1386.8	467.11	-262.09	1198.2	548.09	-313.95	1075.1	577.73	-268.83	933.33	599.61	-273.95	801.99	592.91	-227.56	751.97	600.82	-238.87	996.15	-0.70547	-130.58	670.37	447.9	-176.47	560.04	458.6	-358.62	1347.6	420.47	-145.39	658.27	144.84	-363.66	1121.1	105.84	-159.89	458.88	440.98	-138.98	366.92	354.05	-173.69	179.27	350.98	-196.51	554.56	127.32	-214.85	743.16	492.93	-193.58	650.09	479.75	-94.03	37.852	307.81	-118.89	32.758	398.54	-339.51	1122.7	29.044	-157.82	271.17	426.79	-217.09	641.79	118.7	-255.48	1439.4	148.14	-154.32	274.81	354.36	-173.45	900.95	41.756	-242.02	877.76	3.4512	-220.84	95.83	307.59	-157.2	1359.1	302.24	-218.29	944.36	140.38	-381.69	959.63	253.41	-218.38	345.72	200.15	-248.65	1589	262.26	-376.88	966.88	358.03	-194.15	446.79	140.76	-389.14	1135.3	304.97	-203.56	806.61	558.84	-65.546	1595.4	291.99	-379.42	255.14	213.86	-164.46	848.78	-5.9757	-237.33	737.45	116.6	-299.44	301.63	207.65	-65.91	1593.8	373.49	-462.08	91.385	260.55	-579.98	252.38	245.14	-39.572	32.06	328.74	-483.34	223.89	276.82	-341.6	1049.9	486.82	-483.46	107.05	182.67	-239.53	81.124	396.53	-521.22	242.59	194.31	-320.83	328.43	144.57	-430.01	70.014	236.89	-299.09	1250	47.189	-295.57	34.532	358.54
